<svg version="1.1" id="Layer_1" xmlns="http://www.w3.org/2000/svg" xmlns:xlink="http://www.w3.org/1999/xlink" x="0px" y="0px"
     width="100%" viewBox="0 0 1913 163" enable-background="new 0 0 1913 163" xml:space="preserve">
     <defs>
         <linearGradient id="gradient" gradientTransform="rotate(90)">
             <stop offset="0%" stop-color="#593c81"/>
             <stop offset="100%" stop-color="#5d3e87"/>
         </linearGradient>
     </defs>
     <path fill="url(#gradient)" opacity="1.000000" stroke="none" 
	d="
M1914.000000,30.000002 C1914.000000,74.658241 1914.000000,119.316490 1914.000000,163.943008 C1276.333374,163.943008 638.666687,163.943008 1.000000,163.943008 C1.000000,110.895981 1.000000,57.905945 1.390682,4.459339 C5.270170,5.692989 8.706779,7.502546 12.255895,9.054872 C45.933304,23.784824 79.343880,39.179367 113.415840,52.934612 C138.431290,63.033646 163.981705,72.151932 189.904495,79.573982 C224.033524,89.345596 258.636414,97.578117 293.274719,105.415344 C317.318726,110.855515 341.698792,114.931961 366.053375,118.840767 C386.696381,122.153854 407.496613,124.535080 428.266754,126.994949 C449.713257,129.534912 471.189972,131.853821 492.686981,133.920776 C506.668304,135.265076 520.702026,136.111359 534.726074,136.950699 C548.614380,137.781906 562.516785,138.400894 576.418884,138.969315 C587.528809,139.423584 598.649109,139.987259 609.762024,139.933136 C638.540710,139.793015 667.320984,139.501144 696.094543,138.953278 C715.830261,138.577484 735.556030,137.674911 755.285950,137.000504 C764.901306,136.671814 774.518616,136.383972 784.130127,135.965210 C789.250977,135.742096 794.368164,135.356827 799.475220,134.910187 C813.942993,133.644913 828.401367,132.272034 842.869995,131.017151 C851.759521,130.246124 860.687744,129.852951 869.551514,128.867065 C885.595032,127.082573 901.602234,124.973160 917.626587,123.015457 C931.693970,121.296822 945.817810,119.951912 959.819763,117.808479 C979.164978,114.847099 998.461975,111.520859 1017.701050,107.929840 C1040.011475,103.765572 1062.289185,99.391449 1084.484253,94.654633 C1107.478271,89.747330 1130.325317,84.155685 1153.292480,79.117821 C1183.971069,72.388489 1214.663208,65.708954 1245.427490,59.387787 C1264.113525,55.548363 1282.923950,52.294121 1301.721680,49.025494 C1314.854614,46.741863 1328.054077,44.835690 1341.235962,42.840435 C1354.414551,40.845684 1367.583984,38.762779 1380.802002,37.064491 C1393.392944,35.446770 1406.044556,34.302975 1418.663818,32.900997 C1433.077759,31.299635 1447.467041,29.451420 1461.900757,28.061893 C1478.009033,26.511162 1494.145142,25.213303 1510.287842,24.066971 C1526.956177,22.883308 1543.640015,21.880819 1560.329468,21.044748 C1577.051636,20.207037 1593.784180,19.331009 1610.521118,19.088472 C1633.575439,18.754393 1656.639160,18.867964 1679.697021,19.032324 C1704.310059,19.207767 1728.922119,19.615831 1753.532715,20.031706 C1760.485229,20.149191 1767.431396,20.651218 1774.380493,20.974760 C1796.060425,21.984131 1817.744141,22.919682 1839.418579,24.034277 C1849.159058,24.535177 1858.887573,25.314224 1868.610107,26.107359 C1883.745239,27.342037 1898.870483,28.696381 1914.000000,30.000002 z"/>

</svg>