<svg version="1.1" id="Layer_1" xmlns="http://www.w3.org/2000/svg" xmlns:xlink="http://www.w3.org/1999/xlink" x="0px" y="0px"
	 width="100%" viewBox="0 0 1913 956" enable-background="new 0 0 1913 956" xml:space="preserve">
<path fill="#583B81" opacity="1.000000" stroke="none" 
	d="
M1914.000000,29.999998 
	C1914.000000,338.967224 1914.000000,647.934448 1914.000000,956.950806 
	C1276.433716,956.950806 638.867554,956.950806 1.000000,956.950806 
	C1.000000,639.633972 1.000000,322.267914 1.365408,4.473859 
	C38.585682,22.221218 76.083435,38.922527 114.400505,53.805626 
	C149.908432,67.597603 185.995377,79.693924 222.945740,88.805687 
	C257.905273,97.426529 293.152222,104.968239 328.454468,112.082870 
	C352.147247,116.857773 376.114197,120.350677 400.039856,123.862785 
	C415.364624,126.112350 430.829803,127.427925 446.246094,129.026260 
	C466.100708,131.084732 485.951263,133.220001 505.837891,134.920273 
	C521.492188,136.258682 537.187805,137.229996 552.884460,137.928619 
	C573.439636,138.843491 594.017151,139.964874 614.579468,139.863235 
	C653.313293,139.671783 692.043640,138.699326 730.774292,137.985352 
	C742.726013,137.765045 754.675659,137.385147 766.622559,136.970291 
	C772.743591,136.757767 778.867798,136.444305 784.970764,135.938293 
	C804.058655,134.355682 823.136475,132.651886 842.219482,131.010651 
	C854.231689,129.977585 866.273010,129.215103 878.253174,127.894722 
	C893.970703,126.162460 909.643188,124.018501 925.330688,122.017883 
	C941.183167,119.996239 957.112366,118.421600 972.861084,115.776657 
	C997.836792,111.582062 1022.762024,107.011803 1047.578003,101.959358 
	C1081.097900,95.134827 1114.510620,87.779922 1147.936768,80.502838 
	C1167.863403,76.164696 1187.655884,71.187256 1207.636597,67.126305 
	C1237.457397,61.065384 1267.358154,55.380554 1297.288940,49.884480 
	C1315.246460,46.586998 1333.288452,43.691746 1351.361572,41.097248 
	C1367.995728,38.709335 1384.716797,36.918922 1401.409668,34.950027 
	C1421.378784,32.594707 1441.336914,30.116188 1461.340454,28.091480 
	C1477.772583,26.428267 1494.254517,25.218674 1510.731689,24.050211 
	C1527.236328,22.879797 1543.755371,21.874315 1560.280762,21.045568 
	C1577.005127,20.206835 1593.739990,19.331482 1610.479248,19.088844 
	C1633.536743,18.754622 1656.603638,18.867870 1679.664673,19.031996 
	C1704.447754,19.208378 1729.229858,19.616426 1754.010498,20.032051 
	C1760.797485,20.145882 1767.577515,20.654591 1774.361206,20.973436 
	C1795.877319,21.984724 1817.397339,22.921478 1838.908325,24.032104 
	C1848.816284,24.543661 1858.713867,25.306421 1868.603760,26.108431 
	C1883.741455,27.336029 1898.868408,28.696136 1914.000000,29.999998 
z"/>
<path fill="#000000" opacity="1.000000" stroke="none" 
	d="
M1914.000000,29.531340 
	C1898.868408,28.696136 1883.741455,27.336029 1868.603760,26.108431 
	C1858.713867,25.306421 1848.816284,24.543661 1838.908325,24.032104 
	C1817.397339,22.921478 1795.877319,21.984724 1774.361206,20.973436 
	C1767.577515,20.654591 1760.797485,20.145882 1754.010498,20.032051 
	C1729.229858,19.616426 1704.447754,19.208378 1679.664673,19.031996 
	C1656.603638,18.867870 1633.536743,18.754622 1610.479248,19.088844 
	C1593.739990,19.331482 1577.005127,20.206835 1560.280762,21.045568 
	C1543.755371,21.874315 1527.236328,22.879797 1510.731689,24.050211 
	C1494.254517,25.218674 1477.772583,26.428267 1461.340454,28.091480 
	C1441.336914,30.116188 1421.378784,32.594707 1401.409668,34.950027 
	C1384.716797,36.918922 1367.995728,38.709335 1351.361572,41.097248 
	C1333.288452,43.691746 1315.246460,46.586998 1297.288940,49.884480 
	C1267.358154,55.380554 1237.457397,61.065384 1207.636597,67.126305 
	C1187.655884,71.187256 1167.863403,76.164696 1147.936768,80.502838 
	C1114.510620,87.779922 1081.097900,95.134827 1047.578003,101.959358 
	C1022.762024,107.011803 997.836792,111.582062 972.861084,115.776657 
	C957.112366,118.421600 941.183167,119.996239 925.330688,122.017883 
	C909.643188,124.018501 893.970703,126.162460 878.253174,127.894722 
	C866.273010,129.215103 854.231689,129.977585 842.219482,131.010651 
	C823.136475,132.651886 804.058655,134.355682 784.970764,135.938293 
	C778.867798,136.444305 772.743591,136.757767 766.622559,136.970291 
	C754.675659,137.385147 742.726013,137.765045 730.774292,137.985352 
	C692.043640,138.699326 653.313293,139.671783 614.579468,139.863235 
	C594.017151,139.964874 573.439636,138.843491 552.884460,137.928619 
	C537.187805,137.229996 521.492188,136.258682 505.837891,134.920273 
	C485.951263,133.220001 466.100708,131.084732 446.246094,129.026260 
	C430.829803,127.427925 415.364624,126.112350 400.039856,123.862785 
	C376.114197,120.350677 352.147247,116.857773 328.454468,112.082870 
	C293.152222,104.968239 257.905273,97.426529 222.945740,88.805687 
	C185.995377,79.693924 149.908432,67.597603 114.400505,53.805626 
	C76.083435,38.922527 38.585682,22.221218 1.365408,4.022954 
	C1.000000,3.000225 1.000000,2.000450 1.000000,1.000337 
	C638.523010,1.000000 1276.046021,0.999996 1913.569092,1.002836 
	C1913.712769,1.002836 1913.856323,1.045995 1914.000000,1.068998 
	C1914.000000,10.400229 1914.000000,19.731457 1914.000000,29.531340 
z"/>
</svg>